<svg xmlns="http://www.w3.org/2000/svg" width="22" height="19" fill="none"><path fill="#000" d="M20.2991 9.7859c2.2679-2.2425 2.2679-5.8838 0-8.104-2.268-2.2425-5.9505-2.2425-8.2185 0L10.9804 2.792 9.8801 1.704C7.612-.5605 3.9296-.5605 1.684 1.682.5838 2.7698 0 4.2129 0 5.7449c0 1.532.6063 2.9752 1.6841 4.0632L10.9804 19l9.3187-9.2141zm-18.862-4.041c0-1.1545.4491-2.2202 1.28-3.0195.8532-.8437 1.9535-1.2656 3.0538-1.2656 1.1002 0 2.2005.4219 3.0538 1.2656l2.1557 2.1092 2.1556-2.1314c1.6841-1.6652 4.446-1.6652 6.1077 0 .8084.7993 1.2799 1.865 1.2799 3.0196 0 1.1545-.4491 2.2202-1.2799 3.0195l-8.2633 8.1928L2.717 8.7645C1.9086 7.943 1.4371 6.8773 1.4371 5.745z"/></svg>