<svg xmlns="http://www.w3.org/2000/svg" width="142" height="33" fill="none"><path fill="#fff" d="M0 6.7373v25.8711h3.7584V13.8746h.2429l7.7213 18.6959h3.1192l7.7213-18.6833h.2429v18.7212h3.7583V6.7373h-4.7938L13.4356 26.848h-.3068L4.7938 6.7373H0zM41.1313 33c4.2825 0 7.3122-2.0843 8.1815-5.2424l-3.6178-.6443c-.6903 1.8317-2.3522 2.7665-4.5254 2.7665-3.2726 0-5.4714-2.097-5.5736-5.8362h13.9597v-1.339c0-7.011-4.2442-9.7522-8.6929-9.7522-5.4714 0-9.0764 4.1182-9.0764 10.0806 0 6.0257 3.5539 9.967 9.3449 9.967zm-5.5225-11.786c.1534-2.7539 2.1732-5.1414 5.2796-5.1414 2.9658 0 4.9089 2.1728 4.9217 5.1414H35.6088zM68.5106 17.9422c-.7926-3.0191-3.1831-4.9898-7.4273-4.9898-4.4359 0-7.5807 2.3117-7.5807 5.7477 0 2.7539 1.6874 4.5856 5.3691 5.3941l3.3238.72c1.8919.4169 2.774 1.2506 2.774 2.4633 0 1.5033-1.6235 2.6781-4.1291 2.6781-2.2883 0-3.7584-.9727-4.2186-2.8802l-3.6945.5558C53.5665 31.0672 56.4556 33 60.866 33c4.7427 0 8.0281-2.4886 8.0281-6.0004 0-2.7412-1.7642-4.434-5.3691-5.2551l-3.1192-.7074c-2.1605-.5053-3.0937-1.2253-3.0809-2.5391-.0128-1.4906 1.6235-2.5517 3.7967-2.5517 2.3778 0 3.4772 1.3011 3.9246 2.6023l3.4644-.6064zM82.2625 13.2051h-4.0268V8.5563h-3.8223v4.6488h-2.8763v3.0317h2.8763v11.4576c-.0128 3.5244 2.7101 5.2298 5.7271 5.1666 1.2144-.0126 2.0326-.24 2.48-.4042l-.6903-3.1202c-.2557.0505-.7287.1642-1.3423.1642-1.24 0-2.3522-.4042-2.3522-2.5896V16.2368h4.0268v-3.0317zM94.5508 33c5.5352 0 9.1532-4.0045 9.1532-10.0049 0-6.0382-3.618-10.0427-9.1532-10.0427-5.5353 0-9.1531 4.0045-9.1531 10.0427C85.3977 28.9955 89.0155 33 94.5508 33zm.0128-3.1707c-3.6178 0-5.3052-3.1202-5.3052-6.8468 0-3.7139 1.6874-6.872 5.3052-6.872 3.5922 0 5.2796 3.1581 5.2796 6.872 0 3.7266-1.6874 6.8468-5.2796 6.8468zM107.176 8.8932h1.057V5.5246h1.909c.077 0 .149 0 .222-.0043l1.841 3.3729h1.227l-1.973-3.5623c1.112-.3748 1.632-1.2717 1.632-2.417 0-1.5243-.92-2.6444-2.966-2.6444h-2.949v8.6237zm1.057-4.3119V1.196h1.858c1.415 0 1.96.6821 1.96 1.718 0 1.0358-.545 1.6674-1.943 1.6674h-1.875zM118.84 6.2488c0 1.2127-.937 1.7686-1.687 1.7686-.835 0-1.432-.6064-1.432-1.5496V2.4254h-1.005v4.1098c0 1.6506.886 2.4422 2.113 2.4422.989 0 1.636-.5221 1.943-1.179h.068v1.0948h1.006V2.4254h-1.006v3.8234zM126.324 3.874c-.315-.918-1.023-1.5328-2.318-1.5328-1.381 0-2.403.7748-2.403 1.8696 0 .8927.537 1.4906 1.738 1.7685l1.091.2527c.661.1516.972.4632.972.9095 0 .5558-.597 1.0106-1.534 1.0106-.823 0-1.338-.3495-1.517-1.0443l-.955.2358c.235 1.099 1.151 1.6844 2.489 1.6844 1.521 0 2.556-.8212 2.556-1.937 0-.9011-.571-1.4696-1.738-1.7517l-.972-.2358c-.775-.1895-1.125-.4464-1.125-.9432 0-.5559.597-.9601 1.398-.9601.878 0 1.24.48 1.415.9264l.903-.2527zM132.593 3.874c-.315-.918-1.022-1.5328-2.318-1.5328-1.38 0-2.403.7748-2.403 1.8696 0 .8927.537 1.4906 1.739 1.7685l1.09.2527c.661.1516.972.4632.972.9095 0 .5558-.597 1.0106-1.534 1.0106-.822 0-1.338-.3495-1.517-1.0443l-.955.2358c.235 1.099 1.151 1.6844 2.489 1.6844 1.521 0 2.557-.8212 2.557-1.937 0-.9011-.571-1.4696-1.739-1.7517l-.971-.2358c-.776-.1895-1.125-.4464-1.125-.9432 0-.5559.596-.9601 1.397-.9601.878 0 1.24.48 1.415.9264l.903-.2527zM134.227 8.8932h1.005V2.4254h-1.005v6.4678zm.511-7.5457c.392 0 .716-.3032.716-.6738 0-.3705-.324-.6737-.716-.6737-.392 0-.716.3032-.716.6737 0 .3706.324.6738.716.6738zM139 9.0448c1.142 0 1.739-.6064 1.943-1.0274h.051v.8758H142V4.6319c0-2.0549-1.585-2.2907-2.42-2.2907-.989 0-2.114.3369-2.625 1.5159l.954.3369c.222-.4717.746-.977 1.705-.977.924 0 1.38.4843 1.38 1.3138v.0337c0 .48-.494.438-1.687.5895-1.215.1558-2.54.421-2.54 1.9033 0 1.2632.989 1.9875 2.233 1.9875zm.154-.8927c-.802 0-1.381-.3537-1.381-1.0443 0-.758.699-.9937 1.483-1.0948.426-.0505 1.568-.1684 1.738-.3705v.9095c0 .8085-.647 1.6001-1.84 1.6001z"/></svg>